<svg xmlns="http://www.w3.org/2000/svg" height="505.927" width="534.778"><path d="M226.307 502.199c-2.835-5.345-12.288-14.367-24.977-23.837-10.981-8.195-17.256-14.143-23.428-22.202-3.81-4.977-14.672-28.856-23.588-51.856-9.676-24.964-16.132-33.691-35.047-47.377-6.477-4.687-24.677-20.537-37.17-32.37-7.253-6.871-7.253-6.871-11.51-5.814-2.341.581-7.04 1.365-10.443 1.742l-6.187.686-.313-4.372c-.314-4.372-.314-4.372-5.064-4.032-4.75.34-4.75.34-4.75-2.934 0-1.801-.73-5.879-1.623-9.061-1.47-5.24-2.03-5.983-5.92-7.866-2.362-1.143-6.162-3.431-8.443-5.084-3.58-2.594-4.066-3.38-3.547-5.744.785-3.574-2.9-7.193-7.712-7.575-4.59-.364-5.755-1.207-5.755-4.167 0-1.63-.767-2.782-2.25-3.378-2.25-.904-2.25-.904-.036-.968 1.395-.04 3.152-1.443 4.75-3.795 3.078-4.53 3.114-5.264.429-8.678-1.883-2.393-1.99-3.148-1-7.077 1.72-6.831 1.345-11.432-1.3-15.945-2.407-4.108-2.407-4.108.044-5.265 2.127-1.004 2.382-.935 1.924.52-.29.922.14 3.886.956 6.586s1.483 7.692 1.483 11.095c0 4.778.427 6.572 1.875 7.883 1.03.933 2.268 1.624 2.75 1.536 2.39-.437 4.375.22 4.375 1.45 0 2.658 4.11 10.627 5.482 10.627.763 0 2.542-.439 3.953-.975 2.18-.83 2.565-1.594 2.565-5.09 0-3.63-.59-4.685-5-8.935-4.416-4.256-5-5.302-5-8.952 0-2.273-.7-7.524-1.557-11.67-.856-4.145-1.359-8.064-1.116-8.708.616-1.637 1.166.283 3.047 10.63 1.695 9.325 4.32 14.128 9.126 16.7 3.488 1.866 7.54 7.422 8.986 12.318 1.298 4.394 1.246 4.35 9.61 8.144 8.309 3.768 8.316 3.763 7.924-4.712-.162-3.507.01-3.745 2.654-3.671 1.618.045 2.185.323 1.326.65-2.36.898-2.85 2.306-1.925 5.532.522 1.822.466 3.727-.143 4.867-1.508 2.817 1.264 2.42 4.991-.717 3.337-2.808 3.815-2.326 1.577 1.589-.786 1.375-1.445 2.788-1.465 3.14-.02.35 4.352 3.592 9.715 7.203 5.362 3.61 12.675 9.073 16.25 12.14 14.85 12.742 46.674 38.035 50.656 40.26 5.696 3.183 14.398 4.107 17.785 1.887 2.098-1.374 2.408-2.17 1.904-4.886-1.454-7.826-6.842-18.78-17.89-36.368-6.592-10.497-18.066-31.084-25.845-46.376a26326.206 26326.206 0 00-17.83-35c-4.56-8.904-7.78-23.401-7.78-35.015 0-8.667.546-10.985 2.588-10.985 1.526 0 2.011 1.753 2.87 10.355 1.019 10.213 4.542 13.044 4.542 3.65 0-10.948 4.312-13.934 5.425-3.755.968 8.855 2.416 13.75 4.068 13.75 1.052 0 1.492-1.735 1.711-6.75.167-3.813.731-6.664 1.296-6.553.55.108 1.147 1.008 1.326 2 1.61 8.907 4.174 12.508 4.174 5.862 0-3.108 1.422-5.47 2.59-4.302.252.252 1.374 3.763 2.494 7.803 2.32 8.375 18.1 36.702 37.692 67.664 6.535 10.327 13.745 21.93 16.023 25.784 2.278 3.855 6.372 9.205 9.096 11.889 4.78 4.707 5.12 4.861 9.592 4.357 6.5-.732 9.749-3.901 8.91-8.689-1.261-7.192-8.79-28.986-15.396-44.565-3.732-8.8-8.835-21.93-11.342-29.178-5.539-16.019-28.312-69.679-29.787-70.187-1.367-.47-5.873-10.634-8.816-19.885-1.35-4.24-2.862-7.25-3.645-7.25-.737 0-2.368 1.503-3.625 3.341-1.257 1.838-2.769 3.177-3.36 2.976-.59-.201-1.896.545-2.904 1.659-2.194 2.424-3.699 2.648-2.845.423.338-.88.18-1.893-.35-2.25s-1.685-2.48-2.566-4.72c-1.495-3.801-1.48-4.34.23-8.161 2.958-6.607 5.607-8.613 11.96-9.059 5.045-.354 6.057-.053 11.146 3.314 4.356 2.882 6.207 4.947 8.35 9.314 2.572 5.247 2.843 5.487 4.152 3.696.77-1.053 1.4-3.884 1.4-6.29s.426-5.168.945-6.138c.519-.97 1.081-5.193 1.25-9.384.306-7.613.309-7.62 2.52-6.171 2.902 1.9 3.286 1.835 3.286-.55 0-2.568 1.623-2.573 2.994-.01.586 1.094 2.338 2.648 3.895 3.452 1.556.805 3.427 2.907 4.158 4.672 1.278 3.086 1.203 3.313-1.957 5.952-3.406 2.844-3.623 5.417-.663 7.873 2.336 1.939 6.573-.704 6.573-4.1 0-3.134 1.964-3.792 4-1.34.685.826 1.865 1.5 2.622 1.5.758 0 1.378.9 1.378 2 0 1.322-.667 2-1.965 2-1.081 0-3.444 1.285-5.25 2.854-1.807 1.57-4.372 3.425-5.7 4.124-2.415 1.27-2.415 1.27 1.681 4.672 4.022 3.34 5.464 6.254 6.672 13.479.736 4.398 11.224 27.47 24.492 53.872 5.39 10.725 12.122 25.8 14.96 33.5 13.334 36.162 17.198 44.713 22.049 48.795 4.386 3.69 6.637 4.137 10.234 2.031 6.375-3.734 7.29-6.144 7.672-20.192.228-8.393-.215-16.448-1.301-23.678-2.597-17.28-4.533-40.758-4.573-55.456-.075-27.48-3.51-39.845-11.439-41.171-1.504-.252-2.098.377-2.52 2.67-.366 1.977-.823 2.574-1.342 1.75-.434-.687-1.485-1.25-2.337-1.25-1.189 0-1.39.637-.864 2.732 1.109 4.418 1.093 4.781-.2 4.525-.677-.134-1.964.875-2.86 2.242-2.058 3.141-3.726 2.221-2.888-1.593.505-2.298.29-2.905-1.025-2.905-2.794 0-1.064-2.355 2.387-3.25 4.382-1.135 3.92-4.123-.707-4.568-3.964-.382-6.176 1.208-6.176 4.44 0 1.386-.592 2.378-1.418 2.378-.78 0-2.13.273-3 .607-2.965 1.138-1.94-4.123 1.07-5.495 2.963-1.35 2.315-2.608-1.877-3.644-2.295-.566-2.915-.256-3.928 1.968-.674 1.48-1.77 2.424-2.493 2.146-.71-.272-1.556-.064-1.881.462-.91 1.471-2.473 1.133-2.473-.536 0-.82.9-2.053 2-2.74 2.868-1.791 2.595-3.956-.403-3.203-2.209.554-2.396.318-2.304-2.911.09-3.198.28-3.418 2.105-2.44 1.373.733 2.116.745 2.352.035.19-.57 1.224-.807 2.298-.526 1.342.35 1.952.005 1.952-1.107 0-3.27 1.89-1.497 2.19 2.057.299 3.539 2.81 6.14 2.81 2.91 0-2.653 4.797-2.036 5.18.667.275 1.93 1.013 2.294 5.21 2.56 4.507.286 7.809-.945 6.376-2.378-.33-.33-2.438-.847-4.683-1.148-4.004-.537-5.308-1.705-2.833-2.538.97-.327.94-.797-.141-2.106-.836-1.012-2.134-1.45-3.25-1.095-1.227.389-1.86.098-1.86-.855 0-.795-.702-2.03-1.562-2.743-1.418-1.176-1.418-1.378 0-2.172.86-.48 1.573-1.64 1.585-2.575.031-2.35 3.925 2.62 3.956 5.05.012.962.472 1.75 1.022 1.75s1-1.18 1-2.623c0-2.11.268-2.4 1.373-1.482.756.626 2.106.858 3 .515 1.804-.692 2.355 2.022.627 3.09-2.355 1.455-.847 2.737 2.568 2.182 3.546-.575 3.564-.56 2.893 2.495-.645 2.935.46 4.764 2.903 4.807 2.014.036-1.028-12.199-4.596-18.484-.625-1.1-1.742-3.198-2.482-4.663-1.315-2.603-5.695-4.837-9.48-4.837-1.044 0-3.034 1.137-4.425 2.528-2.014 2.014-2.395 3.131-1.875 5.5.513 2.336.261 3.12-1.176 3.66-1.007.379-2.378 1.39-3.048 2.25-1.042 1.336-1.223 1.164-1.25-1.188-.036-3.121-2.89-3.83-5.032-1.25-1.57 1.893-3.621 1.93-4.332.077-.3-.782-1.586-1.582-2.857-1.778-2.146-.33-2.061-.496 1.189-2.314 3.5-1.958 3.5-1.958.8-2.283-1.486-.179-3.623.168-4.75.771-1.233.66-2.05.711-2.05.13 0-1.507-4.073-2.43-5.3-1.202-1.837 1.836-2.7 1.247-2.7-1.842 0-1.618-.46-3.225-1.022-3.572-.597-.37-.079-1.4 1.25-2.485 2.063-1.683 2.111-1.916.522-2.535-2.142-.834-2.307-2.467-.25-2.467.825 0 1.5-.45 1.5-1 0-1.981 2.07-.946 3 1.5.523 1.375 1.727 2.5 2.675 2.5 1.342 0 1.458-.267.525-1.2-2.014-2.014-1.35-3.551 1.731-4.003 2.215-.325 3.048.014 3.407 1.386.63 2.412 2.662 2.334 2.662-.102 0-2.75-5.921-6.081-10.81-6.081-2.24 0-4.35.45-4.69 1-1.014 1.64-6.5 1.218-6.5-.5 0-.833.889-1.5 2-1.5 2.84 0 2.486-2.84-.446-3.576-1.505-.378-3.32 0-4.722.981-2.954 2.069-3.565 2.011-4.332-.405-.35-1.1-1.294-2-2.099-2-.805 0-1.743-.788-2.084-1.75-.342-.963-1.297-2.538-2.124-3.5-1.338-1.558-1.337-1.75.017-1.75.836 0 2.664.9 4.063 2 3.042 2.393 3.727 2.485 3.727.5 0-1.763 3.567-5.6 4.416-4.75.321.32.584 1.547.584 2.725 0 1.179.643 3.016 1.428 4.084 1.3 1.766 1.488 1.789 2.083.254.396-1.022 1.27-1.45 2.216-1.088.905.348 2.12-.164 2.89-1.216 1.167-1.597 1.4-1.626 1.932-.24.333.866.076 2.562-.57 3.77-.926 1.729-.889 2.471.173 3.503 1.539 1.494 8.785 2.233 10.642 1.085 1.955-1.208.322-2.707-2.62-2.403-2.425.25-2.644-.003-2.348-2.717.424-3.894.793-4.162 2.996-2.168 2.417 2.187 3.178 2.095 3.178-.386 0-1.227-1.2-2.728-2.994-3.75-3.326-1.892-3.752-2.98-1.506-3.842.825-.316 1.507-1.764 1.515-3.218.012-2.074.224-2.32.985-1.143.533.825.976 2.775.984 4.333.018 3.334 2.34 3.201 2.835-.161.303-2.057 2.18-3.167 2.18-1.289 0 .486.934 1.128 2.076 1.426 1.778.465 1.911.848.93 2.68-.73 1.366-.802 2.567-.198 3.325.52.652.832 2.76.693 4.686-.14 1.925.155 4.013.655 4.64.62.78-.079 1.486-2.201 2.226-4.308 1.502-3.544 4.082 2.046 6.913 6.14 3.109 7.908 2.63 9.676-2.624 1.333-3.957 1.31-4.514-.262-6.25-1.64-1.812-1.629-1.905.23-1.905 1.076 0 2.445.49 3.043 1.087.783.783 1.298.746 1.84-.132.44-.712.071-1.6-.887-2.137-.902-.504-1.64-1.514-1.64-2.243 0-1.458 5.151-2.838 7.388-1.98.775.298 1.72.039 2.1-.576.505-.817 1.065-.805 2.088.044.769.638 2.501.883 3.85.545 2.756-.692 4.204.65 2.313 2.144-.682.539-2.561 1.405-4.177 1.926-3.962 1.277-4.513 3.322-.896 3.322 2.482 0 2.834.372 2.834 3 0 2.457-.413 3-2.282 3-1.254 0-2.492.675-2.75 1.5-.257.825-.687 2.194-.953 3.043-.392 1.247-.893 1.325-2.608.407-1.535-.821-2.424-.833-3.215-.043-1.669 1.67.194 2.768 5.909 3.483 5.101.64 5.101.64 9.115-5.625 5.267-8.22 6.284-10.25 6.284-12.543 0-2.373-9.269-15.728-11.515-16.59-2.858-1.096-4.485-.692-4.5 1.118-.01.962-.467 2.425-1.019 3.25-.877 1.312-1.13 1.286-2.01-.209-.555-.94-1.64-1.466-2.41-1.17-1.005.385-1.25-.037-.869-1.496.482-1.842.188-1.977-3.119-1.44-2.803.454-3.582.27-3.354-.797.218-1.023-.822-1.365-3.954-1.302-2.923.06-4.25-.33-4.25-1.25 0-.735.45-1.336 1-1.336s1-.675 1-1.5-.45-1.5-1-1.5-1-.45-1-1c0-1.738 2.467-1.083 3.768 1 1.565 2.506 2.76 2.518 5.402.056 2.348-2.188 1.866-4.993-.889-5.171-3.263-.212-3.778-.378-4.281-1.385-.275-.55.512-1.144 1.75-1.32 1.237-.175 2.25-1.014 2.25-1.863 0-1.584-3.36-1.515-7.25.148-1.251.536-1.75.29-1.75-.858 0-1.049-.871-1.607-2.509-1.607-2.267 0-2.387-.195-1.25-2.03 1.038-1.675 1-2.192-.212-2.946-.81-.504-1.216-1.171-.903-1.484.313-.312 1.753.364 3.202 1.503 2.633 2.071 2.633 2.071 4.862-.005 2.229-2.077 2.229-2.077 4.626.987 2.249 2.873 2.483 2.952 3.76 1.27 1.283-1.694 1.362-1.675 1.392.333.04 2.688 2.718 5.086 4.118 3.687.668-.668.48-1.968-.563-3.908-.86-1.599-1.976-4.1-2.481-5.559-1.24-3.58-7.761-5.953-9.569-3.48-.657.898-2.185 1.632-3.396 1.632-1.686 0-2.13-.506-1.89-2.157.43-2.958-1.6-3.39-3.971-.844-1.59 1.706-2.068 1.829-2.522.648-.307-.802-1.943-1.762-3.635-2.134-3.969-.872-2.966-2.513 1.535-2.513 3.214 0 3.392-.158 2.36-2.086-1.272-2.377-1.249-2.421 1.796-3.357 1.777-.547 2.25-.3 2.25 1.175 0 1.842 1.752 4.268 3.083 4.268.376 0 .892-.8 1.148-1.776.255-.977 1.475-1.852 2.711-1.945 1.913-.144 2.155.196 1.63 2.292-.505 2.008-.142 2.642 1.97 3.445 1.423.541 3.234.984 4.023.984 2.057 0 1.768-3.306-.546-6.25-1.828-2.323-1.865-2.752-.48-5.529.826-1.656 2.168-3.563 2.982-4.238.813-.676 1.479-2.046 1.479-3.047 0-2.143 1.593-3.404 2.483-1.964.389.63 1.537.406 3.069-.598 1.614-1.058 2.448-1.207 2.448-.438 0 .641 1.612 1.84 3.582 2.663 2.892 1.208 3.36 1.766 2.424 2.893-.637.768-2.777 1.534-4.755 1.702-3.838.326-5.901 2.806-2.335 2.806 1.146 0 2.084.45 2.084 1s-.503 1-1.117 1c-.624 0-.886.882-.593 2 .287 1.1.163 2-.277 2-1.4 0-2.088 3.205-.975 4.546.813.98.395 1.616-1.733 2.632-3.572 1.707-3.97 4.597-1.344 9.745 1.852 3.632 3.981 5.37 4.072 3.327.018-.413.961-1.866 2.096-3.23 1.964-2.36 2.126-2.392 3.4-.65 1.405 1.922 3.47 1.441 3.47-.807 0-.725-.693-1.894-1.542-2.598-1.07-.888-1.223-1.6-.5-2.323.574-.573 1.043-2.05 1.043-3.283 0-2.736 1.568-3.926 2.382-1.807.325.848 1.16 1.472 1.854 1.386 1.942-.239 5.764 1.19 5.764 2.155 0 .474-1.125 1.598-2.5 2.499-2.957 1.937-3.238 3.982-.642 4.66 1.037.272 2.088 1.688 2.378 3.206.5 2.613.39 2.694-2.858 2.085-2.654-.498-3.378-.302-3.378.912 0 .85.712 1.545 1.583 1.545 2.184 0 1.197 2.417-1.166 2.857-3.626.677-4.645 2.315-3.99 6.415.78 4.87 3.483 9.218 4.87 7.83.667-.666.406-1.905-.78-3.718-1.536-2.343-1.583-2.867-.338-3.8.795-.597 1.727-1.837 2.072-2.757.43-1.15 1.317-1.491 2.837-1.094 1.41.369 2.636-.004 3.385-1.028 1.01-1.382 3.36-1.612 7.527-.738.275.058-.795 1.164-2.378 2.458-2.839 2.322-2.87 4.575-.063 4.575 2.71 0 .492 4.041-2.922 5.324-1.255.471-1.694 1.35-1.343 2.69.312 1.195-.098 2.337-1.027 2.857-1.674.936-.92 3.129 1.077 3.129.674 0 3.46-2.237 6.191-4.97 2.731-2.735 6.668-5.662 8.75-6.506 3.644-1.479 5.935-4.754 5.017-7.17-.545-1.434-5.161-2.39-5.885-1.22-1.412 2.285-2.283.507-.982-2.007 1.761-3.406 1.248-4.197-2.303-3.551-1.447.263-3.307.008-4.132-.568-1.313-.916-1.282-1.213.25-2.387 2.667-2.044 2.138-2.621-2.405-2.621-4.129 0-4.143-.013-2.294-2.056 1.538-1.7 1.65-2.393.646-4-1.915-3.067 1.375-2.528 3.395.556 1.992 3.04 3.408 3.218 3.408.43 0-1.574.539-1.993 2.25-1.75 1.886.268 2.2.846 1.936 3.57-.367 3.803.35 4.035 3.456 1.116 2.119-1.99 2.172-2.325.797-4.985-1.578-3.05-5.029-4.452-8.697-3.531-2.944.739-4.979-.578-4.569-2.957.27-1.562-.198-1.838-2.673-1.58-2.864.299-2.92.233-1.25-1.463 1.667-1.694 1.62-1.883-1-4.06-2.513-2.087-2.599-2.374-1-3.337.963-.579 1.786-1.818 1.83-2.753.046-1.01.485-.585 1.083 1.05.968 2.651 2.837 3.804 2.837 1.75 0-.55.94-1 2.09-1 3.08 0 5.839-3.901 5.306-7.5-.42-2.829-.378-2.872.733-.75 1.245 2.38 2.387 2.842 3.316 1.34 1.014-1.64-.63-4.135-3.81-5.779-3.074-1.59-3.087-1.63-.896-2.608 1.7-.758 2.087-1.55 1.636-3.348-.698-2.78.36-3.065 2.246-.605 1.1 1.436 1.503 1.504 2.242.382.73-1.109 1.303-.967 3.02.75 2.482 2.482 2.727 4.118.617 4.118-.825 0-1.5.66-1.5 1.468 0 .808.584 1.245 1.298.971.714-.274 2.368.64 3.675 2.031 2.376 2.53 2.376 2.53-1.298 2.53-4.343 0-4.928 1.991-1.175 4 3.25 1.739 3.153 2.611-.5 4.5-3.218 1.664-3.493 2.589-2.113 7.1a290.338 290.338 0 012.04 7.15c.702 2.584 1.738 4.25 2.645 4.25 2.107 0 2.899-2.729 1.337-4.61-1.103-1.33-1.041-1.737.389-2.537.936-.524 1.702-1.916 1.702-3.094 0-2.041.063-2.055 1.349-.298 1.427 1.952 3.651 1.365 3.651-.963 0-.762-.9-2.015-2-2.786-1.94-1.359-1.948-1.505-.25-4.807l1.75-3.405.308 4.25c.38 5.256 3.183 6.13 3.208 1 .019-4.07 1.413-6.681 2.314-4.334.334.871 1.285 1.584 2.114 1.584 1.14 0 1.36.728.909 2.988-.806 4.027 1.824 8.012 5.287 8.012 2.167 0 2.513-.37 2.105-2.25-.268-1.238-.819-3.038-1.223-4-1.33-3.165 1.366-1.867 3.104 1.493 1.65 3.19 1.694 3.207 2.679 1 1.316-2.949 2.695-2.86 2.695.174 0 1.329.563 2.613 1.25 2.853.909.318.755.997-.565 2.484-1.286 1.45-1.48 2.255-.663 2.76.634.391 1.638.226 2.23-.366.771-.771 1.418-.615 2.269.55.7.957 1.867 1.367 2.835.996 2.354-.904 2.126-6.301-.356-8.426-2.389-2.046-2.564-3.268-.468-3.268.842 0 1.79-.675 2.107-1.5.971-2.532 2.624-1.685 1.95 1-.457 1.825-.226 2.5.857 2.5 2.075 0 3.841-3.72 3.124-6.578-.892-3.554 2.544-6.71 5.912-5.429 1.385.527 2.518 1.388 2.518 1.915 0 .526.9 1.243 2 1.592 2.304.73 2.7 2.5.56 2.5-2.224 0-3.036 2.154-1.2 3.181 2.837 1.588 1.789 2.979-2.11 2.798-5.48-.253-5.518-.24-9.027 2.964-2.063 1.885-3.223 3.888-3.223 5.567 0 2.271.369 2.58 2.75 2.306 1.556-.179 2.809-.968 2.885-1.816.074-.825.186-2.22.25-3.098.077-1.062 1.121-1.626 3.115-1.683 2.768-.079 3 .18 3 3.348 0 4.231 1.444 4.41 3.5.433 1.805-3.49 3.107-3.815 4-1 .35 1.101 1.505 2.467 2.568 3.036 3.399 1.82 2.246 3.193-2.068 2.464-4.583-.775-5.322.608-1.833 3.433 2.166 1.754 2.166 1.754-1.128 3.398-1.886.94-4.314 1.387-5.68 1.044-1.311-.33-2.994-.093-3.739.526-1.024.85-1.665.749-2.63-.414-1.146-1.38-1.458-1.373-3.058.075-1.667 1.508-1.803 1.429-2.107-1.225-.178-1.56-.757-2.796-1.286-2.745-1.707.164-4.575 4.858-5.156 8.437-.453 2.792-.076 4.01 1.901 6.143 1.357 1.464 2.466 3.864 2.466 5.334 0 1.47.685 3.357 1.522 4.195 1.281 1.28 2.109 1.328 5.217.303 3.45-1.139 3.654-1.43 3.094-4.413-.58-3.09-.483-3.198 2.932-3.294 3.242-.092 3.508.116 3.258 2.551-.214 2.076.162 2.652 1.727 2.652 1.585 0 1.94-.57 1.712-2.75-.307-2.935.638-3.5 2.588-1.55.934.933 1.467.933 2.4 0 .66-.66 1.837-1.2 2.615-1.2 1.182 0 1.16.39-.134 2.365-.962 1.467-1.195 2.72-.615 3.3.58.58.462 1.937-.31 3.574-1.604 3.398-7.951 5.397-12.112 3.815-2.474-.94-2.891-.824-3.351.936-.664 2.537-2.293 2.63-2.293.132 0-3.413-2.288-4.252-6.068-2.225-5.032 2.698-4.625 5.415.854 5.697 2.357.12 4.887.72 5.623 1.33.736.61 2.07.83 2.965.486.915-.351 1.626-.126 1.626.514 0 .626-.675 1.398-1.5 1.714-1.946.747-1.93 2.983.028 3.734.867.333 2.261-.27 3.223-1.393 1.91-2.231 3.25-2.558 3.25-.794 0 .652 1.012 2.289 2.25 3.637 2.25 2.452 2.25 2.452-.5 1.953-1.756-.318-2.75-.062-2.75.708 0 .664-.89 2.013-1.98 2.998-2.098 1.9-2.504 1.523-3.222-2.981-.188-1.181-1.236-2.131-2.559-2.32-2.268-.323-3.075 1.186-1.24 2.32 1.374.849 1.261 2.5-.17 2.5-.645 0-2.05.787-3.123 1.75-1.91 1.713-1.936 1.663-1.258-2.398.793-4.749-.884-6.924-1.802-2.336-.602 3.015-2.646 4.206-2.646 1.543 0-.793-.49-1.743-1.087-2.113-1.887-1.166-2.883.966-2.256 4.828.557 3.433.866 3.726 3.93 3.726 1.896 0 4.905 1.073 7.008 2.5 3.974 2.697 10.15 3.355 12.205 1.3.66-.66 1.2-2.453 1.2-3.983 0-2.323.8-3.189 4.84-5.236 8.519-4.317 13.993-12.607 9.16-13.87-2.325-.609-2.712-2.711-.5-2.711 2.246 0 1.807-2.54-.75-4.334-1.83-1.283-1.99-1.754-.855-2.521.78-.527 1.118-1.667.767-2.582-.378-.985-.037-1.866.855-2.208.815-.313 1.483-1.196 1.483-1.962s.675-1.393 1.5-1.393c1.019 0 1.51-1.042 1.531-3.25.03-3.024.131-3.12 1.452-1.375.782 1.032 2.051 1.634 2.822 1.338 1.627-.624 5.038 2.923 4.166 4.334-.324.524-1.238.953-2.03.953-2.128 0-1.75 1.767.53 2.49 1.573.5 1.776 1.02 1 2.568l-1.955 3.902c-.541 1.079-.718 2.654-.393 3.5.704 1.834-1.669 2.095-3.39.373-.89-.89-1.316-.782-1.79.452-.922 2.406.322 3.715 3.533 3.715 3.526 0 12.024-3.537 12.024-5.005 0-.592-.98-2.402-2.18-4.023-2.32-3.138-1.889-5.104.656-2.992 1.274 1.058 1.524.954 1.524-.635 0-1.046-.97-2.731-2.156-3.746-1.943-1.664-1.992-1.937-.5-2.772.91-.51 1.656-1.58 1.656-2.377 0-.798.45-1.45 1-1.45s1 .914 1 2.031.675 2.29 1.5 2.607c.825.317 1.5 1.442 1.5 2.5 0 1.059.675 2.184 1.5 2.5.825.317 1.515 1.09 1.533 1.719.064 2.207 3.812 5.643 6.154 5.643 3.288 0 6.87-2.688 6.135-4.603-.404-1.051-.088-1.443.986-1.222.87.179 2.266-.575 3.104-1.675 1.36-1.785 1.527-1.812 1.556-.25.036 2.01 1.3 2.212 4.183.669 2.835-1.517 3.419-.438 1.417 2.617-1.307 1.994-1.435 2.92-.552 3.983.891 1.074.713 1.856-.793 3.472-1.943 2.085-1.943 2.085-3.606-.453-1.827-2.788-7.203-3.552-9.417-1.338-2.142 2.142-1.276 3.074 2.315 2.491 2.83-.459 3.979-.106 5.894 1.809 2.524 2.524 2.378 3.5-.526 3.5-.981 0-2.183.713-2.67 1.584-.547.976-2.705 1.754-5.626 2.027-4.333.404-4.686.276-4.121-1.504.447-1.41.044-2.128-1.466-2.607-1.499-.476-1.913-1.2-1.475-2.58.528-1.663.098-1.922-3.208-1.932-4.4-.015-16.25 4.905-16.29 6.762-.015.687 1.098 1.25 2.473 1.25 2.654 0 3.286 1.814 1.316 3.783-2.14 2.14.021 2.49 2.643.428 2.568-2.02 6.54-1.973 6.54.077 0 .58.737 1.868 1.637 2.862 1.404 1.551 1.428 1.888.172 2.37-.805.309-2.682.098-4.172-.468-2.549-.97-2.692-.874-2.422 1.605.239 2.203-.165 2.699-2.464 3.023-2.27.32-2.75.012-2.75-1.768 0-1.606-.32-1.895-1.25-1.132-.688.564-2.375 1.181-3.75 1.372-2.205.307-2.462.023-2.179-2.402.414-3.538-1.978-3.695-3.821-.25-1.839 3.435-3.3 3.143-2.5-.5.804-3.664.304-3.716-4.025-.414-2.872 2.19-3.302 3.033-2.808 5.5.432 2.161.203 2.914-.887 2.914-.809 0-2.285.9-3.28 2-2.24 2.475-8.767 2.66-16 .452-7.6-2.32-14.139-.877-19.75 4.357-3.513 3.276-3.468 4.768.2 6.665 3.972 2.054 4.372 1.945 3.634-.996-.444-1.768-.177-2.697.891-3.107.839-.322 1.525-1.302 1.525-2.178 0-2.375 1.768-.148 2.165 2.729.184 1.331.958 2.627 1.72 2.878 1.088.359 1.24-.322.705-3.172-.498-2.651-.332-3.632.614-3.642.713-.008 2.42-.303 3.796-.657 2.425-.624 2.447-.583.75 1.343-1.867 2.118-2.362 5.328-.822 5.328 1.203 0 4.072-2.869 4.072-4.072 0-1.735 1.862-.937 2.5 1.072.349 1.1 1.28 2 2.067 2 .788 0 1.433.45 1.433 1s-.675 1-1.5 1c-.834 0-1.5.889-1.5 2 0 2.464-.876 2.55-2.565.25-1.182-1.609-1.371-1.526-2.343 1.018-.58 1.522-2.19 3.199-3.574 3.725-3.116 1.185-3.201 3.012-.268 5.736 1.237 1.149 3.058 3.255 4.046 4.68.989 1.425 2.379 2.59 3.09 2.59 1.523 0 8.524-5.14 8.577-6.297.02-.439-1.2-1.894-2.713-3.233l-2.75-2.436 3.234.606c4.376.818 5.652-2.026 2.172-4.841-1.625-1.314-2-2.111-1.156-2.455.687-.28 1.25-1.147 1.25-1.926 0-2.121 1.773-1.707 2.5.583.349 1.1 1.293 2 2.098 2 2.24 0 2.84-2.859 1.023-4.866-2.108-2.33-2.05-3.06.195-2.472 1.203.315 2.194-.309 2.933-1.843 1.115-2.318 1.115-2.318 1.183.43.088 3.558 1.853 3.558 2.632 0 1.229-5.607 1.453-5.92 2.867-4 .71.963 2.307 1.75 3.551 1.75 1.898 0 2.062.243 1.018 1.5-.685.826-1.865 1.5-2.623 1.5-.757 0-1.377.45-1.377 1s.675 1 1.5 1 1.5.45 1.5 1-.42 1-.933 1c-.513 0-1.218.9-1.567 2-.507 1.597-1.01 1.798-2.502 1-1.027-.55-2.121-1-2.433-1-1.072 0-.563 2.835.578 3.215.838.28.806 1.013-.122 2.747-1.266 2.365-1.266 2.365-3.082-.041-1.681-2.23-1.867-2.27-2.523-.563-.425 1.108-.198 2.16.57 2.634.928.574.694.975-.854 1.467-1.173.372-2.132 1.09-2.132 1.596 0 1.342 14.977-.07 18.25-1.72 3.034-1.529 3.34-2.344 1.553-4.13-.928-.929-.782-1.5.653-2.549 1.017-.743 1.529-1.87 1.137-2.503-.391-.634-.398-1.66-.016-2.279.418-.675 1.244.175 2.062 2.12 1.154 2.747 1.6 3.053 2.885 1.986 1.36-1.128 1.355-1.513-.037-3.638-1.397-2.132-1.399-2.438-.022-2.966.844-.324 1.535-1.202 1.535-1.95 0-2.033 2.72-.606 3.335 1.75.754 2.88 2.865 1.808 4.923-2.497 1.798-3.762 3.742-4.882 3.742-2.157 0 .837 1.111 2.028 2.469 2.646 2.844 1.296 2.426 2.826-.778 2.848-1.205.008-2.866.459-3.69 1-1.26.826-1.279 1.128-.123 1.873 2.192 1.413.315 3.112-3.437 3.112-3.73 0-4.475 1.29-1.69 2.932 1.18.696 1.391 1.281.649 1.8-1.72 1.2-3.558 5.204-2.887 6.288.333.54 1.265.98 2.07.98.807 0 1.894 1.125 2.417 2.5.523 1.375 1.379 2.5 1.902 2.5 1.044 0 4.363 6.068 3.688 6.743-.23.23-1.328-.068-2.439-.662-2.73-1.461-3.147-1.373-3.173.669-.018 1.442-.345 1.33-1.857-.636-1.214-1.58-2.072-2.002-2.537-1.25-1.277 2.065-5.415 1.34-5.764-1.012-.176-1.181-1.22-2.644-2.32-3.25l-2.369-1.305c-.203-.11.375-.946 1.285-1.856 1.278-1.278 1.39-1.97.496-3.047-1.982-2.389-3.912-1.631-3.912 1.536 0 2.278-.501 3.002-2.25 3.25-2.818.4-3.812 5.646-1.332 7.034 2.756 1.542 1.815 3.082-1.481 2.423-2.801-.56-3.011-.42-2.448 1.625.617 2.238.617 2.238-1.346-.012-1.08-1.238-2.679-2.25-3.553-2.25-1.772 0-2.136 1.544-.59 2.5 1.724 1.066 1.096 2.248-1.453 2.736-2.032.388-2.557-.006-3.061-2.3-.944-4.296-4.486-4.904-4.486-.77 0 2.47-2.704 2.341-3.5-.166-.945-2.978-2.681-2.418-2.316.746.458 3.978 5.503 6.146 14.444 6.206 5.16.035 7.47-.366 8.372-1.452 1.734-2.09 3.254-1.875 2.545.359-.35 1.102.074 2.41 1.04 3.212 1.395 1.157 1.828 1.084 2.987-.5.746-1.02 1.54-2.353 1.767-2.963.288-.778.806-.735 1.736.142.729.687 2.135 1.25 3.125 1.25 2.462 0 2.28 2.062-.24 2.72-3.873 1.013-1.371 2.788 3.481 2.47 4.274-.279 4.672-.123 4.123 1.61-.362 1.137.01 2.431.913 3.181 2.482 2.06 1.783 3.32-1.477 2.669-1.692-.339-3-.175-3 .375 0 1.319-5.332 1.243-6.67-.094-.587-.589-1.915-1.196-2.95-1.35-1.185-.177-1.936-1.167-2.031-2.681a302.71 302.71 0 00-.25-3.65c-.19-2.394-1.968-1.231-2.283 1.491-.197 1.708-1.007 2.873-2.15 3.09-1.565.297-1.786-.217-1.5-3.492.306-3.52.111-3.865-2.349-4.15-3.509-.404-5.803 3.131-3.074 4.74 1.298.764 1.44 1.245.543 1.84-.668.442-1.418 2.449-1.667 4.459-.25 2.01-.877 4.41-1.394 5.335-.847 1.512-1.102 1.45-2.548-.614-1.411-2.015-1.686-2.09-2.254-.61-.716 1.867 1.124 4.66 3.069 4.66.685 0 1.506 1.6 1.823 3.555.449 2.764.118 4.013-1.487 5.618-1.678 1.678-2.234 1.808-2.973.696-.5-.753-.673-2.658-.384-4.234.465-2.535.28-2.802-1.604-2.31-1.171.307-2.741-.055-3.49-.805-1.15-1.15-.935-1.684 1.38-3.424 2.743-2.063 2.743-2.063.452-2.706-1.37-.385-2.184-1.297-2.025-2.267.146-.892-.101-2.208-.55-2.924-.612-.976-.104-1.227 2.025-1 2.446.26 2.885-.08 3.157-2.448.303-2.628-1.077-3.755-2.258-1.845-.322.521-1.619.415-3.053-.25-2.193-1.015-2.303-1.297-.912-2.33.87-.646 1.425-1.996 1.233-3-.274-1.429-1.38-1.864-5.088-2.004-5.14-.194-5.237-.122-3.703 2.745.776 1.449.71 1.934-.26 1.934-1.844 0-3.86 3.616-3.108 5.576.5 1.303.208 1.52-1.375 1.017-1.239-.394-2.494-.054-3.273.884-1.707 2.056-2.683 1.915-3.309-.477-.289-1.105-1.364-2-2.402-2-1.275 0-1.888-.724-1.905-2.25-.033-2.848 1.47-3.889 3.808-2.637 2.093 1.12 3.538-1.105 2.153-3.315-1.094-1.745-.508-4.797 1.26-6.565.803-.803 1.179-2.279.846-3.326-.52-1.64-.205-1.804 2.451-1.273 5.902 1.18 4.943-4.571-2.02-12.126-4.458-4.836-6.901-5.724-6.901-2.508 0 1.1.62 2 1.378 2 1.986 0 4.004 2.646 2.654 3.48-.585.362-.806 1.077-.49 1.589.317.512-.1.93-.924.93-.825 0-1.778-.45-2.118-1-.942-1.523-2.5-1.192-2.5.532 0 .842.675 1.79 1.5 2.107.825.317 1.5 1.176 1.5 1.91 0 2.186-2.212 2.882-3.512 1.105-1.97-2.693-2.425-1.932-1.856 3.097.5 4.42.35 4.834-2.15 5.954-2.686 1.204-2.687 1.203-2.025-2.328.57-3.04.37-3.609-1.438-4.081-2.62-.686-2.1-2.686.81-3.115 2.67-.393 2.684-.667.171-3.18-2.893-2.893-2.537-4.277.905-3.521 3.395.746 5.477-1.305 2.196-2.163-1.156-.302-2.101-1.135-2.101-1.851s-.272-2.012-.606-2.88c-.498-1.3-.059-1.468 2.5-.956 2.372.474 3.106.266 3.106-.882 0-3.736-7.06-5.907-10.143-3.118-3.555 3.218-4.857 6.986-4.86 14.071 0 6.02.71 11.558 4.917 38.3.563 3.575 2.196 12.8 3.63 20.5 2.092 11.236 2.598 16.96 2.567 29-.022 8.25.382 20.723.898 27.717.851 11.536 1.492 14.392 6.901 30.758 6.876 20.801 12.195 30.785 21.954 41.21 6.764 7.227 11.421 9.497 16.849 8.212 8.278-1.96 12.624-9.253 28.24-47.397 3.965-9.685 8.4-17.801 16.738-30.633 1.31-2.016 1.078-2.307-4.229-5.302-3.35-1.89-6.29-4.433-7.288-6.304-2.69-5.038-5.823-7.761-8.929-7.761-1.565 0-3.3-.455-3.856-1.012-.557-.556-7.146-2.556-14.643-4.444-14.513-3.655-19.122-5.512-20.62-8.305-.874-1.632.067-1.697 15.221-1.06 8.884.375 18.853.266 22.153-.242 8.293-1.275 22.182-1.17 24.816.189 1.201.62 4.803 3.378 8.004 6.13 6.493 5.581 8.825 5.469 6.804-.33-2.829-8.116.015-21.341 8.264-38.426 4.47-9.258 7.803-14.665 11.577-18.785 2.914-3.181 5.51-5.573 5.77-5.314.598.598-4.383 11.54-6.178 13.572-2.818 3.19-8.557 15.894-8.557 18.943 0 1.75.62 4.398 1.378 5.884 1.688 3.307 4.622 16.02 4.622 20.025 0 3.254 2.008 5.514 4.123 4.641.757-.312 2.285-2.005 3.394-3.762 2.964-4.693 5.834-5.702 13.922-4.895l6.916.69-3.678 2.803c-4.335 3.301-6.146 6.545-7.088 12.698-.378 2.475-2.47 7.748-4.647 11.718-5.557 10.132-14.082 37.36-18.405 58.782-.79 3.908-4.585 12.62-10.89 24.99-10.82 21.232-17.788 38.172-23.035 56.01-1.942 6.6-5.116 16.678-7.054 22.396-1.938 5.718-4.693 14.686-6.121 19.93-2.58 9.466-7.93 21.245-15.753 34.674-3.878 6.656-4.065 7.358-3.813 14.274.167 4.545 1.507 11.578 3.573 18.75l3.308 11.476H228.286zM71.124 316.769c2.042-1.092 2.022-1.17-.994-3.865-2.887-2.58-3.36-2.686-7.642-1.706-4.783 1.094-6.125 2.68-5.074 5.995.563 1.773 1.216 1.915 6.128 1.338 3.024-.356 6.436-1.148 7.582-1.762zm-18.49-10.583c-.22-3.435-.754-4.827-1.939-5.051-1.22-.232-1.752.65-2.099 3.49-.591 4.841-.036 6.302 2.396 6.302 1.7 0 1.909-.605 1.643-4.741zm9.665 2.791c.714-1.156-3.134-3.375-4.446-2.564-.515.318-.682 1.238-.372 2.046.628 1.638 3.908 1.99 4.818.518zm-13.469-35.55c-1.375-.786-3.175-1.409-4-1.384-.825.026-.15.664 1.5 1.42 3.95 1.809 5.683 1.784 2.5-.036zM352.26 164.04c.653-1.057-2.213-3.663-3.078-2.799-.833.833.372 3.686 1.558 3.686.534 0 1.219-.4 1.52-.887zm20.393-2.78c-.486-2.51-2.823-2.854-2.823-.416 0 1.228.646 2.083 1.573 2.083.932 0 1.442-.68 1.25-1.667zm-42.323-12.32c0-1.78-3.298-2.615-4.72-1.194-.553.554-.687 1.522-.298 2.15.994 1.61 5.018.842 5.018-.955zm27.039-10.056c2.343-2.59 4.523-8.8 3.344-9.53-1.917-1.185-10.105.952-15.112 3.943-5.56 3.323-6.775 5.916-3.021 6.45 1.513.214 2.25-.195 2.25-1.25 0-.864.45-1.57 1-1.57s1 .486 1 1.08c0 .68 1.117.833 3.029.414 1.665-.366 2.962-.29 2.881.17-.528 3.006 2.027 3.168 4.629.293zm18.461-12.489c0-3.113-2.601-4.296-4.742-2.155-1.307 1.308-1.36 1.859-.3 3.137 2.1 2.53 5.042 1.957 5.042-.982zm-91.692-2.218a239.678 239.678 0 017.637-5.565c3.724-2.585 5.76-6.553 2.774-5.408-.704.27-1.787-.581-2.405-1.893-.904-1.915-.85-2.384.28-2.384 2.39 0 1.548-2.926-1.027-3.573-1.6-.401-2.242-1.11-1.875-2.067.307-.8-.284-2.073-1.315-2.826-1.03-.754-1.548-1.697-1.15-2.095.399-.398 1.41-.155 2.249.54 1.626 1.35 1.862.91 1.545-2.871-.191-2.27.014-2.358 4.007-1.72 4.208.673 4.208.673 3.76-2.384-.29-1.976-.067-2.872.631-2.532.595.29 1.869.804 2.831 1.144.963.34 1.75 1.375 1.75 2.3 0 .926.4 2.111.888 2.634.488.522 1.193 1.962 1.567 3.2.548 1.812.289 2.25-1.329 2.25-2.983 0-3.24 1.287-.74 3.695 2.228 2.143 2.228 2.143 6.694-.637 2.456-1.528 5.458-3.094 6.671-3.48 1.445-.458 2.616-2.071 3.398-4.682 1.022-3.411.958-4.217-.447-5.622-1.52-1.52-1.789-1.506-3.677.203-2.445 2.213-3.608 1.48-2.106-1.326 1.973-3.686 1.378-4.373-3.169-3.664l-4.25.663 3-2.5c2.44-2.035 2.762-2.743 1.725-3.8-1.019-1.04-1.671-1.052-3.25-.067-2.146 1.34-2.684.326-.817-1.54 1.63-1.63-.699-4.243-3.78-4.243-3.015 0-3.125-1.754-.138-2.18 1.232-.176 2.398-1.153 2.592-2.17.332-1.737-.25-1.807-9.49-1.14-10.699.773-14.925 2.473-17.334 6.976-1.05 1.962-1.094 2.828-.188 3.734.65.649 1.18 2.027 1.18 3.063 0 3.49 2.494 1.111 3-2.861.317-2.489.796-3.465 1.309-2.672 1.052 1.625 2.691 1.608 2.691-.028 0-.702.716-2.299 1.59-3.548 1.591-2.27 1.591-2.27 4 .329 1.326 1.43 2.41 2.787 2.41 3.016 0 .23-1.237 1.07-2.75 1.869l-2.75 1.452 2.817 1.08c2.31.887 2.693 1.487 2.126 3.33-.97 3.155-1.282 3.331-3.475 1.962-1.067-.667-2.718-1.212-3.669-1.212-1.587 0-1.597.13-.12 1.607 1.476 1.476 1.453 1.761-.286 3.5-2.409 2.409-2.685 2.377-3.073-.347-.176-1.232-1.15-2.398-2.166-2.592-1.427-.272-1.708.086-1.236 1.572.889 2.803-2.397 5.363-6.526 5.084-1.866-.125-3.73-.7-4.142-1.276-.493-.69-1.087-.534-1.735.452-1.424 2.17-1.26 2.798 1.049 4.034 1.53.819 2.433.798 3.488-.077 1.128-.936 1.56-.827 2.08.526.485 1.264 1.39 1.562 3.473 1.146 3.041-.608 5.03.998 2.458 1.985-1.041.4-1.563 1.88-1.563 4.434 0 4.556 1.668 6.121 2.594 2.433.436-1.736 1.138-2.414 2.111-2.04.802.307 2.152.559 3 .559 1.25 0 1.307.28.306 1.487-.68.818-.979 2.154-.666 2.968.312.815.108 1.765-.454 2.112-.631.39-.328 1.413.794 2.68 1.804 2.036 1.789 2.045-2.435 1.389-3.417-.53-4.25-.363-4.25.852 0 .832.375 1.512.833 1.512.458 0 .756 1.012.663 2.25-.12 1.58-.808 2.25-2.314 2.25-1.179 0-2.152.337-2.163.75-.01.412-.019 1.2-.019 1.75 0 1.792 2.651 1.057 6.308-1.75zm-11.508.55c1.889-1.889 1.405-4.789-.944-5.658-1.452-.537-2.257-1.829-2.495-4-.313-2.862-.15-3.1 1.512-2.21 1.025.549 2.148.713 2.496.366.347-.347.631.542.631 1.976s.45 2.886 1 3.226c.55.34 1-.061 1-.891 0-.83.745-1.926 1.655-2.436 2.364-1.323.95-4.385-1.843-3.987-1.634.233-2.351-.311-2.784-2.112-.64-2.666-3.028-4.095-3.028-1.812 0 1.927-3.634 5.14-4.404 3.893-.331-.536-.33-1.686 0-2.556.795-2.073-2.48-3.401-3.686-1.495-1.41 2.228-1.066 5.377 1.157 10.563 3.324 7.754 6.66 10.2 9.729 7.133zm51.704-3.807c.343-.554-.1-1.285-.984-1.624-1.914-.734-2.981.075-2.061 1.564.83 1.344 2.235 1.371 3.045.06zm4.68-3.21c-.718-.717-1.184-.776-1.184-.15 0 1.335 1.183 2.518 1.85 1.85.284-.284-.016-1.049-.667-1.7zm-26.649-8.398c3.41-2.234 3.082-3.571-.785-3.199-2.49.24-3.325.84-3.57 2.564-.377 2.658.968 2.855 4.355.635zm-82.899-1.88c.316-.821 1.002-1.229 1.526-.905.523.323 2.051.312 3.395-.025 4.876-1.224 2.224-7.575-3.162-7.575-2.914 0-5.395 3.06-5.395 6.655 0 3.523 2.505 4.798 3.636 1.85zm-9.636-2.005c0-.825-.423-1.5-.941-1.5-1.26 0-2.164 1.561-1.365 2.36 1.126 1.127 2.306.686 2.306-.86zm22-2c0-.825-.45-1.5-1-1.5s-1 .675-1 1.5.45 1.5 1 1.5 1-.675 1-1.5zm64.835-3.635c-.392-2.766-3.148-3.194-3.654-.567-.442 2.294 1.8 5.12 3.061 3.86.51-.51.777-1.992.593-3.293zm-29.406 1.563c1.97-1.97 2.015-3.428.106-3.428-1.63 0-3.822 3.38-2.833 4.368.867.868.947.84 2.727-.94zm-28.629-7.628c1.62-1.621 1.519-3.8-.177-3.8-1.846 0-3.957 2.65-3.15 3.956.845 1.367 1.852 1.32 3.327-.156zm7.2-.241c0-1.056-1.92-1.499-2.49-.575-.345.559.073 1.016.931 1.016.858 0 1.559-.199 1.559-.441zm31.15-4.06c0-.522-.484-1.11-1.075-1.307-.591-.198-1.075.391-1.075 1.308s.484 1.505 1.075 1.308c.591-.197 1.075-.786 1.075-1.308zm92.684-2.927c.325-2.858.278-2.89-2-1.38-3.302 2.188-3.72 5.07-.673 4.64 1.746-.248 2.424-1.075 2.673-3.26zm-125.307.384c.355-.574.082-1.722-.605-2.55-1.094-1.318-1.432-1.325-2.704-.052-.8.8-1.15 1.947-.777 2.55.858 1.39 3.24 1.42 4.086.052zm31.902-3.528c1.76-1.76 2.104-4.428.571-4.428-1.597 0-5.132 3.977-4.477 5.036.856 1.386 2.107 1.191 3.906-.608zm51.571-.428c0-1.111-.667-2-1.5-2s-1.5.889-1.5 2 .667 2 1.5 2 1.5-.889 1.5-2zm6.375 1.202c.79-1.28-1.043-3.525-2.263-2.771-1.606.992-1.368 3.569.329 3.569.792 0 1.663-.36 1.934-.798zm63.072-3.288a1.117 1.117 0 00-1.532-.361 1.117 1.117 0 00-.362 1.532 1.117 1.117 0 001.532.362 1.117 1.117 0 00.362-1.533zm-77.037-2.587c2.03.779 3.034-2.53 1.18-3.886-1.127-.823-1.229-1.402-.395-2.236.834-.834.5-1.645-1.285-3.132-2.41-2.007-2.41-2.007-.043-2.04 1.932-.027 2.262-.433 1.798-2.208-.366-1.4.037-2.622 1.133-3.433 1.27-.938 1.415-1.55.572-2.406-2.42-2.457-16.234 7.318-14.976 10.596.334.87.607 2.064.607 2.655 0 .59.907.252 2.015-.752 1.954-1.767 2.061-1.764 3.469.095 1.876 2.48 1.863 3.379-.082 5.528-2.36 2.608-.837 4.223 2.142 2.27 1.342-.879 3.081-1.352 3.865-1.051zm71.316-3.986c.389-1.186-5.423-2.978-6.421-1.98-.304.304-.274 1.277.066 2.163.708 1.844 5.738 1.7 6.355-.183zm-45.726-3.841c0-.833-.889-1.5-2-1.5s-2 .667-2 1.5.889 1.5 2 1.5 2-.667 2-1.5zm20.823-4.833c.192-.987-.318-1.667-1.25-1.667-.927 0-1.573.855-1.573 2.083 0 2.437 2.337 2.093 2.823-.416zm-100.823.333c0-.55-.648-1-1.441-1-.792 0-1.72.45-2.059 1-.34.55.308 1 1.441 1 1.132 0 2.059-.45 2.059-1zm-18.223-5.967c-.629-6.543-2.001-8.033-7.4-8.033-5.074 0-5.308.698-2.309 6.905 1.929 3.991 2.188 4.173 3.83 2.688 2.291-2.075 3.102-2.012 3.102.24 0 2.026.827 3.167 2.294 3.167.55 0 .756-2.127.483-4.967zm14.223 1.967c0-1.1-.45-2-1-2s-1 .9-1 2 .45 2 1 2 1-.9 1-2zm48.5-2.614c11.273-5.43 14.594-9.38 12.504-14.875-.912-2.4-1.436-2.675-4.082-2.146-2.24.448-3.595.086-5.173-1.384-2.708-2.523-1.16-4.806 2.083-3.071 2.967 1.588 3.753-.48.895-2.354-2.99-1.958-14.859-3.703-16.227-2.385-.66.637-.429 1.386.684 2.208.926.684 1.995 2.487 2.376 4.006.388 1.545 1.695 3.142 2.97 3.626 1.251.476 2.559 1.324 2.905 1.883.346.56 1.29.765 2.097.455 1.796-.689 1.852.028.218 2.795-1 1.694-1 2.208 0 2.57.688.249 1.25.892 1.25 1.428 0 .537-.42.717-.932.4-.512-.317-1.557.318-2.322 1.41-1.275 1.82-1.572 1.858-3.568.46-1.417-.993-2.178-1.125-2.178-.38 0 2.051-4.362 4.908-5.745 3.763-.684-.567-2.122-.802-3.194-.521-1.434.375-2.031-.058-2.256-1.632-.562-3.944-2.301-2.197-2.61 2.621l-.306 4.763 6.806-.134c5.504-.109 8.143-.78 13.805-3.506zm-12.5-6.386c0-.55-.45-1-1-1s-1 .45-1 1 .45 1 1 1 1-.45 1-1zm-48.543-2.07c-.742-1.2-3.457-1.212-3.457-.013 0 1.083 2.17 2 3.266 1.379.422-.239.508-.853.191-1.365zm36.131-4.675c-1.092-1.092-1.841.645-1.057 2.452.744 1.713.798 1.712 1.212-.035.239-1.006.169-2.093-.155-2.417zm19.412 1.162c0-1.766-2.153-1.459-2.77.395-.218.653.316 1.188 1.187 1.188.87 0 1.583-.713 1.583-1.583zm-9.579-1.417c.692 0 1.786-1.159 2.431-2.575 2.2-4.829-1.345-6.157-4.78-1.79-2.495 3.173-2.759 5.842-.49 4.972.87-.334 2.148-.607 2.84-.607zm48.579-2.532c0-1.596-2.658-3.144-3.667-2.135-.319.32-.314 1.275.012 2.124.767 1.998 3.655 2.008 3.655.012zm-41.23-1.28c.219-.654-.316-1.188-1.187-1.188-.87 0-1.583.712-1.583 1.583 0 1.766 2.153 1.459 2.77-.396zm25.043-1.126c.25-.75-.125-1.125-.875-.875-.722.241-1.51 1.028-1.75 1.75-.25.75.125 1.125.875.875.721-.24 1.509-1.028 1.75-1.75zM281.83 30.927c0-.55-.45-1-1-1s-1 .45-1 1 .45 1 1 1 1-.45 1-1zm-43.466-8.895c-1.996-1.996-2.931-.824-2.073 2.597.677 2.695.754 2.725 2.13.842 1.242-1.698 1.235-2.147-.058-3.44zm42.466 1.363c0-3.113-2.601-4.296-4.742-2.155-1.307 1.308-1.36 1.859-.3 3.137 2.1 2.53 5.042 1.957 5.042-.982zM.592 266.22c1.244-.24 3.044-.23 4 .02s-.062.446-2.262.435c-2.2-.011-2.982-.216-1.738-.455zm476.666-42.101c2.92-5.539 3.95-6.378 6.602-5.379 1.518.573 3.434.575 4.97.006 3.815-1.412 9.882-7.75 12.708-13.276 2.535-4.956 2.535-4.956-.17-7-1.487-1.123-5.254-4.566-8.37-7.649-5.668-5.606-5.668-5.606-15.254-6.212-8.884-.562-15.844-2.085-14.711-3.218.264-.264 4.264-.924 8.889-1.466 4.624-.543 12.38-1.727 17.236-2.631l8.827-1.645 5.398 5.33c2.969 2.932 5.746 4.982 6.172 4.556.426-.426.703-4.667.614-9.424-.214-11.521 3.289-25.607 7.205-28.976 1.478-1.27 2.82-2.175 2.982-2.01.163.167-.836 3.672-2.22 7.791-1.99 5.926-2.374 8.536-1.842 12.5.37 2.756.979 7.486 1.354 10.511.621 5.01.92 5.528 3.346 5.808 1.97.228 2.835-.229 3.318-1.75.488-1.538 1.5-2.058 4.004-2.058 1.843 0 4.175-.31 5.182-.687 1.519-.57 1.627-.435.635.789-.659.812-2.595 5.284-4.303 9.937-5.862 15.976-13.811 26.774-23.242 31.574-4.873 2.48-15.133 4.42-19.23 3.637-1.27-.242-4.38.476-6.913 1.596-4.606 2.038-4.606 2.038-3.187-.654zm-345.594-52.777c2.03-5.166 4.666-6.603 4.666-2.543 0 1.502-1.21 3.304-3.298 4.915l-3.299 2.544zm-74.51 1.145c-2.296-.718-5.671-2.208-7.5-3.311-1.828-1.103-5.062-2.315-7.186-2.694-3.88-.69-8.638-4.387-8.638-6.71 0-.87.316-.929 1.052-.194 3.15 3.15 11.948-4.072 11.948-9.808 0-2.761.176-2.943 1.659-1.716 2.13 1.763 5.29 8.697 5.32 11.668.06 6.31 10.478 9.747 15.209 5.017 2.187-2.187 2.187-2.187-.542-3.097-2.256-.752-2.518-1.164-1.51-2.378.67-.808 2.46-2.111 3.979-2.897 2.194-1.134 2.903-2.375 3.453-6.044.488-3.254.323-4.845-.558-5.39-.932-.576-.786-1.032.573-1.793 1.542-.863 1.619-1.265.497-2.616-.942-1.136-.986-1.597-.151-1.597 1.107 0 2.926-3.543 4.562-8.886.68-2.221.532-2.338-2.13-1.682-2.788.687-2.751.592 1.454-3.718 3.625-3.715 4.635-5.684 6.321-12.318 2.454-9.653 5.923-15.858 10.066-18 3.016-1.56 3.186-1.535 4.939.744 4.126 5.365 7.053 19.549 6.857 33.223-.072 5.025.167 11.612.533 14.637.614 5.087.43 5.82-2.44 9.75-3.272 4.48-4.734 5.238-5.268 2.731-.21-.984-1.555.148-3.823 3.215-4.318 5.84-12.05 11.788-17.928 13.793-5.345 1.823-15.038 1.857-20.748.071zm46.975-10.56c.151-4.133.574-5.5 1.701-5.5 1.817 0 1.645 3.062-.432 7.711-1.47 3.289-1.47 3.289-1.27-2.211zm14.723-.059c-.027-4.37 2.282-7.994 4.01-6.292 1.38 1.36.68 3.902-2.026 7.35-1.961 2.5-1.961 2.5-1.984-1.058zM423.3 151.825c.278-3.724.688-4.29 4.274-5.895 5.993-2.683 8.256-5.62 8.256-10.716 0-3.767-.347-4.469-2.639-5.34-1.452-.552-3.89-2.056-5.418-3.342-2.363-1.988-3.995-2.364-10.9-2.511-4.467-.096-9.342-.669-10.833-1.274-2.607-1.058-2.482-1.153 3.29-2.5 3.3-.77 8.7-2.287 12-3.37 7.538-2.476 9.937-2.461 14.053.083 4.038 2.495 4.93 1.367 2.851-3.608-1.79-4.287-1.987-14.121-.442-22.24 1.271-6.684 3.463-10.67 2.576-4.685-1.916 12.925-1.922 12.843 1.235 18.047 1.652 2.724 3.31 5.965 3.683 7.203.925 3.065 3.158 2.83 4.747-.5.875-1.835 2.224-2.855 4.055-3.067 2.582-.298 2.684-.162 1.742 2.316-.55 1.447-.998 4.964-.995 7.816.01 7.37-2.782 14.42-7.58 19.16-7.054 6.97-14.054 12.376-23.093 17.836-.834.504-1.08-.475-.862-3.413zM64.613 141.177c-2.281-2.616-3.783-5.865-3.783-8.184 0-2.515 2.523-2.745 3.464-.316.735 1.896 2.415 10.25 2.062 10.25-.119 0-.903-.788-1.743-1.75zm51.408-40.172c.17-2.433.871-4.608 1.559-4.834 1.794-.59 1.541 4.792-.341 7.256-1.432 1.875-1.508 1.725-1.218-2.422z" fill="#206276"/></svg>